<svg xmlns="http://www.w3.org/2000/svg" xmlns:xlink="http://www.w3.org/1999/xlink" xmlns:lucid="lucid" width="940" height="590"><g transform="translate(-80 -80)" lucid:page-tab-id="0_0"><path d="M0 0h1870.87v1322.83H0z" fill="#fff"/><path d="M100 100h160v60H100z" fill="none"/><use xlink:href="#a" transform="matrix(1,0,0,1,100,100) translate(4.5061728395061635 34.44444444444444)"/><use xlink:href="#b" transform="matrix(1,0,0,1,100,100) translate(68.0864197530864 34.44444444444444)"/><path d="M460 106a6 6 0 0 1 6-6h148a6 6 0 0 1 6 6v48a6 6 0 0 1-6 6H466a6 6 0 0 1-6-6z" stroke="#3a414a" stroke-width="2" fill="#fff"/><use xlink:href="#c" transform="matrix(1,0,0,1,472,112) translate(31.641975308641975 22.27777777777778)"/><path d="M260.5 130h182.15" stroke="#3a414a" fill="none"/><path d="M260.5 130.5h-.5v-1h.5z" stroke="#3a414a" stroke-width=".05" fill="#3a414a"/><path d="M457.42 130l-14.27 4.64v-9.28z" stroke="#3a414a" fill="#3a414a"/><path d="M460 346a6 6 0 0 1 6-6h148a6 6 0 0 1 6 6v48a6 6 0 0 1-6 6H466a6 6 0 0 1-6-6z" stroke="#3a414a" stroke-width="2" fill="#fff"/><use xlink:href="#d" transform="matrix(1,0,0,1,472,352) translate(21.73456790123457 22.27777777777778)"/><path d="M100 326a6 6 0 0 1 6-6h148a6 6 0 0 1 6 6v88a6 6 0 0 1-6 6H106a6 6 0 0 1-6-6z" stroke="#3a414a" stroke-width="2" fill="#fff"/><use xlink:href="#e" transform="matrix(1,0,0,1,112,332) translate(13.987654320987644 29.65277777777778)"/><use xlink:href="#f" transform="matrix(1,0,0,1,112,332) translate(17.475308641975317 56.31944444444445)"/><path d="M442.65 370h-181.2" stroke="#3a414a" fill="none"/><path d="M457.42 370l-14.27 4.64v-9.28z" stroke="#3a414a" fill="#3a414a"/><path d="M261.48 370.5h-.52v-1h.52z" stroke="#3a414a" stroke-width=".05" fill="#3a414a"/><path d="M460 586a6 6 0 0 1 6-6h148a6 6 0 0 1 6 6v48a6 6 0 0 1-6 6H466a6 6 0 0 1-6-6z" stroke="#3a414a" stroke-width="2" fill="#fff"/><use xlink:href="#g" transform="matrix(1,0,0,1,472,592) translate(13.154320987654323 22.27777777777778)"/><path d="M260 643c0 3.87-35.82 7-80 7s-80-3.13-80-7v-56c0-3.87 35.82-7 80-7s80 3.13 80 7z" stroke="#3a414a" stroke-width="3" fill="#fff"/><path d="M260 587c0 3.87-35.82 7-80 7s-80-3.13-80-7" stroke="#3a414a" stroke-width="3" fill="none"/><use xlink:href="#h" transform="matrix(1,0,0,1,105,599) translate(25.709876543209873 26.40277777777778)"/><path d="M277.88 615h164.78" stroke="#3a414a" fill="none"/><path d="M263.12 615l14.26-4.64v9.28zM457.43 615l-14.27 4.64v-9.28z" stroke="#3a414a" fill="#3a414a"/><path d="M820 340h180v60H820z" fill="none"/><use xlink:href="#a" transform="matrix(1,0,0,1,820,340) translate(5.246913580246911 34.44444444444444)"/><use xlink:href="#i" transform="matrix(1,0,0,1,820,340) translate(68.82716049382717 34.44444444444444)"/><path d="M621.46 370h182.16" stroke="#3a414a" fill="none"/><path d="M621.48 370.5h-.52v-1h.52z" stroke="#3a414a" stroke-width=".05" fill="#3a414a"/><path d="M818.38 370l-14.26 4.64v-9.28z" stroke="#3a414a" fill="#3a414a"/><path d="M400 220h280v60H400z" fill="none"/><use xlink:href="#j" transform="matrix(1,0,0,1,400,220) translate(24.43518518518522 23.77777777777778)"/><use xlink:href="#k" transform="matrix(1,0,0,1,400,220) translate(81.38580246913583 23.77777777777778)"/><use xlink:href="#l" transform="matrix(1,0,0,1,400,220) translate(156.39814814814815 23.77777777777778)"/><use xlink:href="#m" transform="matrix(1,0,0,1,400,220) translate(195.2006172839506 23.77777777777778)"/><use xlink:href="#n" transform="matrix(1,0,0,1,400,220) translate(5.898148148148181 42.44444444444444)"/><use xlink:href="#o" transform="matrix(1,0,0,1,400,220) translate(71.44753086419755 42.44444444444444)"/><use xlink:href="#p" transform="matrix(1,0,0,1,400,220) translate(131.81172839506172 42.44444444444444)"/><use xlink:href="#q" transform="matrix(1,0,0,1,400,220) translate(150.73765432098764 42.44444444444444)"/><use xlink:href="#r" transform="matrix(1,0,0,1,400,220) translate(240.39814814814812 42.44444444444444)"/><path d="M470 460h140v60H470z" fill="none"/><use xlink:href="#s" transform="matrix(1,0,0,1,470,460) translate(12.6388888888889 33.111111111111114)"/><use xlink:href="#t" transform="matrix(1,0,0,1,470,460) translate(95.47222222222221 33.111111111111114)"/><path d="M620 300h180v60H620z" fill="none"/><use xlink:href="#u" transform="matrix(1,0,0,1,620,300) translate(14.533950617283963 23.77777777777778)"/><use xlink:href="#v" transform="matrix(1,0,0,1,620,300) translate(64.57098765432099 23.77777777777778)"/><use xlink:href="#w" transform="matrix(1,0,0,1,620,300) translate(101.64506172839505 23.77777777777778)"/><use xlink:href="#x" transform="matrix(1,0,0,1,620,300) translate(17.947530864197546 42.44444444444444)"/><use xlink:href="#y" transform="matrix(1,0,0,1,620,300) translate(49.836419753086425 42.44444444444444)"/><use xlink:href="#z" transform="matrix(1,0,0,1,620,300) translate(113.7006172839506 42.44444444444444)"/><path d="M270 300h180v60H270z" fill="none"/><g><use xlink:href="#A" transform="matrix(1,0,0,1,270,300) translate(5.049382716049394 23.77777777777778)"/><use xlink:href="#v" transform="matrix(1,0,0,1,270,300) translate(35.25308641975309 23.77777777777778)"/><use xlink:href="#B" transform="matrix(1,0,0,1,270,300) translate(72.32716049382717 23.77777777777778)"/><use xlink:href="#C" transform="matrix(1,0,0,1,270,300) translate(140.46913580246914 23.77777777777778)"/><use xlink:href="#D" transform="matrix(1,0,0,1,270,300) translate(4.617283950617306 42.44444444444444)"/><use xlink:href="#E" transform="matrix(1,0,0,1,270,300) translate(81.40123456790124 42.44444444444444)"/></g><path d="M540 417.35v42.15" stroke="#3a414a" fill="none"/><path d="M540 402.58l4.64 14.27h-9.28z" stroke="#3a414a" fill="#3a414a"/><path d="M540.5 460h-1v-.5h1z" stroke="#3a414a" stroke-width=".05" fill="#3a414a"/><path d="M540 562.65V520.5" stroke="#3a414a" fill="none"/><path d="M540 577.42l-4.64-14.27h9.28z" stroke="#3a414a" fill="#3a414a"/><path d="M540.5 520.5h-1v-.5h1z" stroke="#3a414a" stroke-width=".05" fill="#3a414a"/><path d="M540 161.46v58.04" stroke="#3a414a" fill="none"/><path d="M540.5 161.48h-1v-.52h1zM540.5 220h-1v-.5h1z" stroke="#3a414a" stroke-width=".05" fill="#3a414a"/><path d="M540 322.65V280.5" stroke="#3a414a" fill="none"/><path d="M540 337.42l-4.64-14.27h9.28z" stroke="#3a414a" fill="#3a414a"/><path d="M540.5 280.5h-1v-.5h1z" stroke="#3a414a" stroke-width=".05" fill="#3a414a"/><path d="M290 540h140v60H290z" fill="none"/><g><use xlink:href="#F" transform="matrix(1,0,0,1,290,540) translate(20.43827160493828 23.77777777777778)"/><use xlink:href="#G" transform="matrix(1,0,0,1,290,540) translate(69.5679012345679 23.77777777777778)"/><use xlink:href="#H" transform="matrix(1,0,0,1,290,540) translate(105.77777777777777 23.77777777777778)"/><use xlink:href="#I" transform="matrix(1,0,0,1,290,540) translate(36.36111111111112 42.44444444444444)"/></g><defs><path fill="#3a414a" d="M186 0v-106H76V0H24v-248h52v99h110v-99h50V0h-50" id="J"/><path fill="#3a414a" d="M136-208V0H84v-208H4v-40h212v40h-80" id="K"/><path fill="#3a414a" d="M24-248c93 1 206-16 204 79-1 75-69 88-152 82V0H24v-248zm52 121c47 0 100 7 100-41 0-47-54-39-100-39v80" id="L"/><g id="a"><use transform="matrix(0.06172839506172839,0,0,0.06172839506172839,0,0)" xlink:href="#J"/><use transform="matrix(0.06172839506172839,0,0,0.06172839506172839,15.987654320987653,0)" xlink:href="#K"/><use transform="matrix(0.06172839506172839,0,0,0.06172839506172839,29.50617283950617,0)" xlink:href="#K"/><use transform="matrix(0.06172839506172839,0,0,0.06172839506172839,43.02469135802469,0)" xlink:href="#L"/></g><path fill="#3a414a" d="M240-174c0 40-23 61-54 70L253 0h-59l-57-94H76V0H24v-248c93 4 217-23 216 74zM76-134c48-2 112 12 112-38 0-48-66-32-112-35v73" id="M"/><path fill="#3a414a" d="M185-48c-13 30-37 53-82 52C43 2 14-33 14-96s30-98 90-98c62 0 83 45 84 108H66c0 31 8 55 39 56 18 0 30-7 34-22zm-45-69c5-46-57-63-70-21-2 6-4 13-4 21h74" id="N"/><path fill="#3a414a" d="M84 4C32 4 15-41 15-95c0-55 18-99 73-99 29 0 47 12 58 34l2-30h48l-1 265h-49V-32C136-9 114 4 84 4zm21-34c32 0 41-29 41-66 0-36-9-64-40-64-33 0-39 30-40 65 0 43 13 65 39 65" id="O"/><path fill="#3a414a" d="M85 4C-2 5 27-109 22-190h50c7 57-23 150 33 157 60-5 35-97 40-157h50l1 190h-47c-2-12 1-28-3-38-12 25-28 42-61 42" id="P"/><path fill="#3a414a" d="M137-138c1-29-70-34-71-4 15 46 118 7 119 86 1 83-164 76-172 9l43-7c4 19 20 25 44 25 33 8 57-30 24-41C81-84 22-81 20-136c-2-80 154-74 161-7" id="Q"/><path fill="#3a414a" d="M115-3C79 11 28 4 28-45v-112H4v-33h27l15-45h31v45h36v33H77v99c-1 23 16 31 38 25v30" id="R"/><g id="b"><use transform="matrix(0.06172839506172839,0,0,0.06172839506172839,0,0)" xlink:href="#M"/><use transform="matrix(0.06172839506172839,0,0,0.06172839506172839,15.987654320987653,0)" xlink:href="#N"/><use transform="matrix(0.06172839506172839,0,0,0.06172839506172839,28.333333333333332,0)" xlink:href="#O"/><use transform="matrix(0.06172839506172839,0,0,0.06172839506172839,41.85185185185185,0)" xlink:href="#P"/><use transform="matrix(0.06172839506172839,0,0,0.06172839506172839,55.37037037037037,0)" xlink:href="#N"/><use transform="matrix(0.06172839506172839,0,0,0.06172839506172839,67.71604938271605,0)" xlink:href="#Q"/><use transform="matrix(0.06172839506172839,0,0,0.06172839506172839,80.06172839506173,0)" xlink:href="#R"/></g><path fill="#3a414a" d="M135-150c-39-12-60 13-60 57V0H25l-1-190h47c2 13-1 29 3 40 6-28 27-53 61-41v41" id="S"/><path fill="#3a414a" d="M25 0v-261h50V0H25" id="T"/><path fill="#3a414a" d="M24 0v-54h51V0H24" id="U"/><path fill="#3a414a" d="M135-194c53 0 70 44 70 98 0 56-19 98-73 100-31 1-45-17-59-34 3 33 2 69 2 105H25l-1-265h48c2 10 0 23 3 31 11-24 29-35 60-35zM114-30c33 0 39-31 40-66 0-38-9-64-40-64-56 0-55 130 0 130" id="V"/><path fill="#3a414a" d="M123 10C108 53 80 86 19 72V37c35 8 53-11 59-39L3-190h52l48 148c12-52 28-100 44-148h51" id="W"/><g id="c"><use transform="matrix(0.06172839506172839,0,0,0.06172839506172839,0,0)" xlink:href="#P"/><use transform="matrix(0.06172839506172839,0,0,0.06172839506172839,13.518518518518517,0)" xlink:href="#S"/><use transform="matrix(0.06172839506172839,0,0,0.06172839506172839,22.160493827160494,0)" xlink:href="#T"/><use transform="matrix(0.06172839506172839,0,0,0.06172839506172839,28.333333333333332,0)" xlink:href="#Q"/><use transform="matrix(0.06172839506172839,0,0,0.06172839506172839,40.67901234567901,0)" xlink:href="#U"/><use transform="matrix(0.06172839506172839,0,0,0.06172839506172839,46.851851851851855,0)" xlink:href="#V"/><use transform="matrix(0.06172839506172839,0,0,0.06172839506172839,60.370370370370374,0)" xlink:href="#W"/></g><path fill="#3a414a" d="M128 0H69L1-190h53L99-40l48-150h52" id="X"/><path fill="#3a414a" d="M25-224v-37h50v37H25zM25 0v-190h50V0H25" id="Y"/><path fill="#3a414a" d="M231 0h-52l-39-155L100 0H48L-1-190h46L77-45c9-52 24-97 36-145h53l37 145 32-145h46" id="Z"/><g id="d"><use transform="matrix(0.06172839506172839,0,0,0.06172839506172839,0,0)" xlink:href="#X"/><use transform="matrix(0.06172839506172839,0,0,0.06172839506172839,12.345679012345679,0)" xlink:href="#Y"/><use transform="matrix(0.06172839506172839,0,0,0.06172839506172839,18.51851851851852,0)" xlink:href="#N"/><use transform="matrix(0.06172839506172839,0,0,0.06172839506172839,30.864197530864196,0)" xlink:href="#Z"/><use transform="matrix(0.06172839506172839,0,0,0.06172839506172839,48.148148148148145,0)" xlink:href="#Q"/><use transform="matrix(0.06172839506172839,0,0,0.06172839506172839,60.49382716049382,0)" xlink:href="#U"/><use transform="matrix(0.06172839506172839,0,0,0.06172839506172839,66.66666666666666,0)" xlink:href="#V"/><use transform="matrix(0.06172839506172839,0,0,0.06172839506172839,80.18518518518518,0)" xlink:href="#W"/></g><path fill="#3a414a" d="M220-157c-53 9-28 100-34 157h-49v-107c1-27-5-49-29-50C55-147 81-57 75 0H25l-1-190h47c2 12-1 28 3 38 10-53 101-56 108 0 13-22 24-43 59-42 82 1 51 116 57 194h-49v-107c-1-25-5-48-29-50" id="aa"/><path fill="#3a414a" d="M133-34C117-15 103 5 69 4 32 3 11-16 11-54c-1-60 55-63 116-61 1-26-3-47-28-47-18 1-26 9-28 27l-52-2c7-38 36-58 82-57s74 22 75 68l1 82c-1 14 12 18 25 15v27c-30 8-71 5-69-32zm-48 3c29 0 43-24 42-57-32 0-66-3-65 30 0 17 8 27 23 27" id="ab"/><g id="e"><use transform="matrix(0.06172839506172839,0,0,0.06172839506172839,0,0)" xlink:href="#K"/><use transform="matrix(0.06172839506172839,0,0,0.06172839506172839,11.851851851851851,0)" xlink:href="#N"/><use transform="matrix(0.06172839506172839,0,0,0.06172839506172839,24.19753086419753,0)" xlink:href="#aa"/><use transform="matrix(0.06172839506172839,0,0,0.06172839506172839,43.95061728395062,0)" xlink:href="#V"/><use transform="matrix(0.06172839506172839,0,0,0.06172839506172839,57.46913580246914,0)" xlink:href="#T"/><use transform="matrix(0.06172839506172839,0,0,0.06172839506172839,63.64197530864199,0)" xlink:href="#ab"/><use transform="matrix(0.06172839506172839,0,0,0.06172839506172839,75.98765432098766,0)" xlink:href="#R"/><use transform="matrix(0.06172839506172839,0,0,0.06172839506172839,83.33333333333334,0)" xlink:href="#N"/><use transform="matrix(0.06172839506172839,0,0,0.06172839506172839,95.67901234567903,0)" xlink:href="#Q"/></g><path fill="#3a414a" d="M24-231v-30h32v30H24zM24 0v-190h32V0H24" id="ac"/><path fill="#3a414a" d="M117-194c89-4 53 116 60 194h-32v-121c0-31-8-49-39-48C34-167 62-67 57 0H25l-1-190h30c1 10-1 24 2 32 11-22 29-35 61-36" id="ad"/><path fill="#3a414a" d="M85-194c31 0 48 13 60 33l-1-100h32l1 261h-30c-2-10 0-23-3-31C134-8 116 4 85 4 32 4 16-35 15-94c0-66 23-100 70-100zm9 24c-40 0-46 34-46 75 0 40 6 74 45 74 42 0 51-32 51-76 0-42-9-74-50-73" id="ae"/><path fill="#3a414a" d="M100-194c63 0 86 42 84 106H49c0 40 14 67 53 68 26 1 43-12 49-29l28 8c-11 28-37 45-77 45C44 4 14-33 15-96c1-61 26-98 85-98zm52 81c6-60-76-77-97-28-3 7-6 17-6 28h103" id="af"/><path fill="#3a414a" d="M141 0L90-78 38 0H4l68-98-65-92h35l48 74 47-74h35l-64 92 68 98h-35" id="ag"/><path fill="#3a414a" d="M33 0v-38h34V0H33" id="ah"/><path fill="#3a414a" d="M106-169C34-169 62-67 57 0H25v-261h32l-1 103c12-21 28-36 61-36 89 0 53 116 60 194h-32v-121c2-32-8-49-39-48" id="ai"/><path fill="#3a414a" d="M59-47c-2 24 18 29 38 22v24C64 9 27 4 27-40v-127H5v-23h24l9-43h21v43h35v23H59v120" id="aj"/><path fill="#3a414a" d="M210-169c-67 3-38 105-44 169h-31v-121c0-29-5-50-35-48C34-165 62-65 56 0H25l-1-190h30c1 10-1 24 2 32 10-44 99-50 107 0 11-21 27-35 58-36 85-2 47 119 55 194h-31v-121c0-29-5-49-35-48" id="ak"/><path fill="#3a414a" d="M24 0v-261h32V0H24" id="al"/><g id="f"><use transform="matrix(0.06172839506172839,0,0,0.06172839506172839,0,0)" xlink:href="#ac"/><use transform="matrix(0.06172839506172839,0,0,0.06172839506172839,4.876543209876543,0)" xlink:href="#ad"/><use transform="matrix(0.06172839506172839,0,0,0.06172839506172839,17.22222222222222,0)" xlink:href="#ae"/><use transform="matrix(0.06172839506172839,0,0,0.06172839506172839,29.5679012345679,0)" xlink:href="#af"/><use transform="matrix(0.06172839506172839,0,0,0.06172839506172839,41.913580246913575,0)" xlink:href="#ag"/><use transform="matrix(0.06172839506172839,0,0,0.06172839506172839,53.02469135802468,0)" xlink:href="#ah"/><use transform="matrix(0.06172839506172839,0,0,0.06172839506172839,59.197530864197525,0)" xlink:href="#ai"/><use transform="matrix(0.06172839506172839,0,0,0.06172839506172839,71.5432098765432,0)" xlink:href="#aj"/><use transform="matrix(0.06172839506172839,0,0,0.06172839506172839,77.71604938271604,0)" xlink:href="#ak"/><use transform="matrix(0.06172839506172839,0,0,0.06172839506172839,96.17283950617282,0)" xlink:href="#al"/></g><path fill="#3a414a" d="M110-194c64 0 96 36 96 99 0 64-35 99-97 99-61 0-95-36-95-99 0-62 34-99 96-99zm-1 164c35 0 45-28 45-65 0-40-10-65-43-65-34 0-45 26-45 65 0 36 10 65 43 65" id="am"/><path fill="#3a414a" d="M88-194c31-1 46 15 58 34l-1-101h50l1 261h-48c-2-10 0-23-3-31C134-8 116 4 84 4 32 4 16-41 15-95c0-56 19-97 73-99zm17 164c33 0 40-30 41-66 1-37-9-64-41-64s-38 30-39 65c0 43 13 65 39 65" id="an"/><g id="g"><use transform="matrix(0.06172839506172839,0,0,0.06172839506172839,0,0)" xlink:href="#aa"/><use transform="matrix(0.06172839506172839,0,0,0.06172839506172839,19.753086419753085,0)" xlink:href="#am"/><use transform="matrix(0.06172839506172839,0,0,0.06172839506172839,33.2716049382716,0)" xlink:href="#an"/><use transform="matrix(0.06172839506172839,0,0,0.06172839506172839,46.79012345679012,0)" xlink:href="#N"/><use transform="matrix(0.06172839506172839,0,0,0.06172839506172839,59.1358024691358,0)" xlink:href="#T"/><use transform="matrix(0.06172839506172839,0,0,0.06172839506172839,65.30864197530863,0)" xlink:href="#Q"/><use transform="matrix(0.06172839506172839,0,0,0.06172839506172839,77.65432098765432,0)" xlink:href="#U"/><use transform="matrix(0.06172839506172839,0,0,0.06172839506172839,83.82716049382715,0)" xlink:href="#V"/><use transform="matrix(0.06172839506172839,0,0,0.06172839506172839,97.34567901234567,0)" xlink:href="#W"/></g><path fill="#3a414a" d="M24-248c120-7 223 5 221 122C244-46 201 0 124 0H24v-248zM76-40c74 7 117-18 117-86 0-67-45-88-117-82v168" id="ao"/><path fill="#3a414a" d="M135-194c52 0 70 43 70 98 0 56-19 99-73 100-30 1-46-15-58-35L72 0H24l1-261h50v104c11-23 29-37 60-37zM114-30c31 0 40-27 40-66 0-37-7-63-39-63s-41 28-41 65c0 36 8 64 40 64" id="ap"/><g id="h"><use transform="matrix(0.06172839506172839,0,0,0.06172839506172839,0,0)" xlink:href="#ao"/><use transform="matrix(0.06172839506172839,0,0,0.06172839506172839,15.987654320987653,0)" xlink:href="#ab"/><use transform="matrix(0.06172839506172839,0,0,0.06172839506172839,28.333333333333332,0)" xlink:href="#R"/><use transform="matrix(0.06172839506172839,0,0,0.06172839506172839,35.67901234567901,0)" xlink:href="#ab"/><use transform="matrix(0.06172839506172839,0,0,0.06172839506172839,48.02469135802469,0)" xlink:href="#ap"/><use transform="matrix(0.06172839506172839,0,0,0.06172839506172839,61.54320987654321,0)" xlink:href="#ab"/><use transform="matrix(0.06172839506172839,0,0,0.06172839506172839,73.88888888888889,0)" xlink:href="#Q"/><use transform="matrix(0.06172839506172839,0,0,0.06172839506172839,86.23456790123457,0)" xlink:href="#N"/></g><path fill="#3a414a" d="M135-194c87-1 58 113 63 194h-50c-7-57 23-157-34-157-59 0-34 97-39 157H25l-1-190h47c2 12-1 28 3 38 12-26 28-41 61-42" id="aq"/><g id="i"><use transform="matrix(0.06172839506172839,0,0,0.06172839506172839,0,0)" xlink:href="#M"/><use transform="matrix(0.06172839506172839,0,0,0.06172839506172839,15.987654320987653,0)" xlink:href="#N"/><use transform="matrix(0.06172839506172839,0,0,0.06172839506172839,28.333333333333332,0)" xlink:href="#Q"/><use transform="matrix(0.06172839506172839,0,0,0.06172839506172839,40.67901234567901,0)" xlink:href="#V"/><use transform="matrix(0.06172839506172839,0,0,0.06172839506172839,54.19753086419753,0)" xlink:href="#am"/><use transform="matrix(0.06172839506172839,0,0,0.06172839506172839,67.71604938271605,0)" xlink:href="#aq"/><use transform="matrix(0.06172839506172839,0,0,0.06172839506172839,81.23456790123457,0)" xlink:href="#Q"/><use transform="matrix(0.06172839506172839,0,0,0.06172839506172839,93.58024691358025,0)" xlink:href="#N"/></g><path fill="#3a414a" d="M24 0v-248h195v40H76v63h132v40H76v65h150V0H24" id="ar"/><path fill="#3a414a" d="M144 0l-44-69L55 0H2l70-98-66-92h53l41 62 40-62h54l-67 91 71 99h-54" id="as"/><path fill="#3a414a" d="M190-63c-7 42-38 67-86 67-59 0-84-38-90-98-12-110 154-137 174-36l-49 2c-2-19-15-32-35-32-30 0-35 28-38 64-6 74 65 87 74 30" id="at"/><g id="j"><use transform="matrix(0.04320987654320987,0,0,0.04320987654320987,0,0)" xlink:href="#ar"/><use transform="matrix(0.04320987654320987,0,0,0.04320987654320987,10.370370370370368,0)" xlink:href="#as"/><use transform="matrix(0.04320987654320987,0,0,0.04320987654320987,19.01234567901234,0)" xlink:href="#R"/><use transform="matrix(0.04320987654320987,0,0,0.04320987654320987,24.154320987654316,0)" xlink:href="#S"/><use transform="matrix(0.04320987654320987,0,0,0.04320987654320987,30.2037037037037,0)" xlink:href="#ab"/><use transform="matrix(0.04320987654320987,0,0,0.04320987654320987,38.84567901234567,0)" xlink:href="#at"/><use transform="matrix(0.04320987654320987,0,0,0.04320987654320987,47.487654320987644,0)" xlink:href="#R"/></g><path fill="#3a414a" d="M195-6C206 82 75 100 31 46c-4-6-6-13-8-21l49-6c3 16 16 24 34 25 40 0 42-37 40-79-11 22-30 35-61 35-53 0-70-43-70-97 0-56 18-96 73-97 30 0 46 14 59 34l2-30h47zm-90-29c32 0 41-27 41-63 0-35-9-62-40-62-32 0-39 29-40 63 0 36 9 62 39 62" id="au"/><g id="k"><use transform="matrix(0.04320987654320987,0,0,0.04320987654320987,0,0)" xlink:href="#ab"/><use transform="matrix(0.04320987654320987,0,0,0.04320987654320987,8.641975308641973,0)" xlink:href="#S"/><use transform="matrix(0.04320987654320987,0,0,0.04320987654320987,14.691358024691354,0)" xlink:href="#au"/><use transform="matrix(0.04320987654320987,0,0,0.04320987654320987,24.154320987654316,0)" xlink:href="#P"/><use transform="matrix(0.04320987654320987,0,0,0.04320987654320987,33.61728395061728,0)" xlink:href="#aa"/><use transform="matrix(0.04320987654320987,0,0,0.04320987654320987,47.444444444444436,0)" xlink:href="#N"/><use transform="matrix(0.04320987654320987,0,0,0.04320987654320987,56.08641975308641,0)" xlink:href="#aq"/><use transform="matrix(0.04320987654320987,0,0,0.04320987654320987,65.54938271604937,0)" xlink:href="#R"/></g><path fill="#3a414a" d="M121-226c-27-7-43 5-38 36h38v33H83V0H34v-157H6v-33h28c-9-59 32-81 87-68v32" id="av"/><g id="l"><use transform="matrix(0.04320987654320987,0,0,0.04320987654320987,0,0)" xlink:href="#av"/><use transform="matrix(0.04320987654320987,0,0,0.04320987654320987,5.141975308641975,0)" xlink:href="#S"/><use transform="matrix(0.04320987654320987,0,0,0.04320987654320987,11.191358024691356,0)" xlink:href="#am"/><use transform="matrix(0.04320987654320987,0,0,0.04320987654320987,20.654320987654316,0)" xlink:href="#aa"/></g><path fill="#3a414a" d="M76-54c-1 42 2 86-19 110H24C36 42 46 24 48 0H25v-54h51" id="aw"/><g id="m"><use transform="matrix(0.04320987654320987,0,0,0.04320987654320987,0,0)" xlink:href="#S"/><use transform="matrix(0.04320987654320987,0,0,0.04320987654320987,6.049382716049381,0)" xlink:href="#N"/><use transform="matrix(0.04320987654320987,0,0,0.04320987654320987,14.691358024691354,0)" xlink:href="#O"/><use transform="matrix(0.04320987654320987,0,0,0.04320987654320987,24.154320987654316,0)" xlink:href="#P"/><use transform="matrix(0.04320987654320987,0,0,0.04320987654320987,33.61728395061728,0)" xlink:href="#N"/><use transform="matrix(0.04320987654320987,0,0,0.04320987654320987,42.25925925925925,0)" xlink:href="#Q"/><use transform="matrix(0.04320987654320987,0,0,0.04320987654320987,50.90123456790123,0)" xlink:href="#R"/><use transform="matrix(0.04320987654320987,0,0,0.04320987654320987,56.043209876543195,0)" xlink:href="#aw"/></g><path fill="#3a414a" d="M76-208v77h127v40H76V0H24v-248h183v40H76" id="ax"/><g id="n"><use transform="matrix(0.04320987654320987,0,0,0.04320987654320987,0,0)" xlink:href="#ax"/><use transform="matrix(0.04320987654320987,0,0,0.04320987654320987,9.46296296296296,0)" xlink:href="#am"/><use transform="matrix(0.04320987654320987,0,0,0.04320987654320987,18.92592592592592,0)" xlink:href="#S"/><use transform="matrix(0.04320987654320987,0,0,0.04320987654320987,24.975308641975303,0)" xlink:href="#Z"/><use transform="matrix(0.04320987654320987,0,0,0.04320987654320987,37.07407407407406,0)" xlink:href="#ab"/><use transform="matrix(0.04320987654320987,0,0,0.04320987654320987,45.71604938271604,0)" xlink:href="#S"/><use transform="matrix(0.04320987654320987,0,0,0.04320987654320987,51.76543209876541,0)" xlink:href="#an"/></g><g id="o"><use transform="matrix(0.04320987654320987,0,0,0.04320987654320987,0,0)" xlink:href="#S"/><use transform="matrix(0.04320987654320987,0,0,0.04320987654320987,6.049382716049381,0)" xlink:href="#N"/><use transform="matrix(0.04320987654320987,0,0,0.04320987654320987,14.691358024691354,0)" xlink:href="#O"/><use transform="matrix(0.04320987654320987,0,0,0.04320987654320987,24.154320987654316,0)" xlink:href="#P"/><use transform="matrix(0.04320987654320987,0,0,0.04320987654320987,33.61728395061728,0)" xlink:href="#N"/><use transform="matrix(0.04320987654320987,0,0,0.04320987654320987,42.25925925925925,0)" xlink:href="#Q"/><use transform="matrix(0.04320987654320987,0,0,0.04320987654320987,50.90123456790123,0)" xlink:href="#R"/></g><g id="p"><use transform="matrix(0.04320987654320987,0,0,0.04320987654320987,0,0)" xlink:href="#R"/><use transform="matrix(0.04320987654320987,0,0,0.04320987654320987,5.141975308641975,0)" xlink:href="#am"/></g><g id="q"><use transform="matrix(0.04320987654320987,0,0,0.04320987654320987,0,0)" xlink:href="#ab"/><use transform="matrix(0.04320987654320987,0,0,0.04320987654320987,8.641975308641973,0)" xlink:href="#V"/><use transform="matrix(0.04320987654320987,0,0,0.04320987654320987,18.104938271604933,0)" xlink:href="#V"/><use transform="matrix(0.04320987654320987,0,0,0.04320987654320987,27.56790123456789,0)" xlink:href="#S"/><use transform="matrix(0.04320987654320987,0,0,0.04320987654320987,33.61728395061727,0)" xlink:href="#am"/><use transform="matrix(0.04320987654320987,0,0,0.04320987654320987,43.08024691358023,0)" xlink:href="#V"/><use transform="matrix(0.04320987654320987,0,0,0.04320987654320987,52.5432098765432,0)" xlink:href="#S"/><use transform="matrix(0.04320987654320987,0,0,0.04320987654320987,58.59259259259257,0)" xlink:href="#Y"/><use transform="matrix(0.04320987654320987,0,0,0.04320987654320987,62.913580246913554,0)" xlink:href="#ab"/><use transform="matrix(0.04320987654320987,0,0,0.04320987654320987,71.55555555555553,0)" xlink:href="#R"/><use transform="matrix(0.04320987654320987,0,0,0.04320987654320987,76.6975308641975,0)" xlink:href="#N"/></g><g id="r"><use transform="matrix(0.04320987654320987,0,0,0.04320987654320987,0,0)" xlink:href="#X"/><use transform="matrix(0.04320987654320987,0,0,0.04320987654320987,8.641975308641973,0)" xlink:href="#Y"/><use transform="matrix(0.04320987654320987,0,0,0.04320987654320987,12.962962962962958,0)" xlink:href="#N"/><use transform="matrix(0.04320987654320987,0,0,0.04320987654320987,21.60493827160493,0)" xlink:href="#Z"/></g><path fill="#3a414a" d="M4 7l51-268h42L46 7H4" id="ay"/><g id="s"><use transform="matrix(0.04320987654320987,0,0,0.04320987654320987,0,0)" xlink:href="#M"/><use transform="matrix(0.04320987654320987,0,0,0.04320987654320987,11.191358024691356,0)" xlink:href="#N"/><use transform="matrix(0.04320987654320987,0,0,0.04320987654320987,19.83333333333333,0)" xlink:href="#ab"/><use transform="matrix(0.04320987654320987,0,0,0.04320987654320987,28.475308641975303,0)" xlink:href="#an"/><use transform="matrix(0.04320987654320987,0,0,0.04320987654320987,37.938271604938265,0)" xlink:href="#ay"/><use transform="matrix(0.04320987654320987,0,0,0.04320987654320987,42.25925925925925,0)" xlink:href="#Z"/><use transform="matrix(0.04320987654320987,0,0,0.04320987654320987,54.35802469135801,0)" xlink:href="#S"/><use transform="matrix(0.04320987654320987,0,0,0.04320987654320987,60.4074074074074,0)" xlink:href="#Y"/><use transform="matrix(0.04320987654320987,0,0,0.04320987654320987,64.72839506172838,0)" xlink:href="#R"/><use transform="matrix(0.04320987654320987,0,0,0.04320987654320987,69.87037037037035,0)" xlink:href="#N"/></g><g id="t"><use transform="matrix(0.04320987654320987,0,0,0.04320987654320987,0,0)" xlink:href="#an"/><use transform="matrix(0.04320987654320987,0,0,0.04320987654320987,9.46296296296296,0)" xlink:href="#ab"/><use transform="matrix(0.04320987654320987,0,0,0.04320987654320987,18.104938271604933,0)" xlink:href="#R"/><use transform="matrix(0.04320987654320987,0,0,0.04320987654320987,23.246913580246908,0)" xlink:href="#ab"/></g><path fill="#3a414a" d="M230 0l2-204L168 0h-37L68-204 70 0H24v-248h70l56 185 57-185h69V0h-46" id="az"/><g id="u"><use transform="matrix(0.04320987654320987,0,0,0.04320987654320987,0,0)" xlink:href="#az"/><use transform="matrix(0.04320987654320987,0,0,0.04320987654320987,12.91975308641975,0)" xlink:href="#N"/><use transform="matrix(0.04320987654320987,0,0,0.04320987654320987,21.56172839506172,0)" xlink:href="#S"/><use transform="matrix(0.04320987654320987,0,0,0.04320987654320987,27.6111111111111,0)" xlink:href="#au"/><use transform="matrix(0.04320987654320987,0,0,0.04320987654320987,37.07407407407406,0)" xlink:href="#N"/></g><path fill="#3a414a" d="M114-157C55-157 80-60 75 0H25v-261h50l-1 109c12-26 28-41 61-42 86-1 58 113 63 194h-50c-7-57 23-157-34-157" id="aA"/><g id="v"><use transform="matrix(0.04320987654320987,0,0,0.04320987654320987,0,0)" xlink:href="#aA"/><use transform="matrix(0.04320987654320987,0,0,0.04320987654320987,9.46296296296296,0)" xlink:href="#R"/><use transform="matrix(0.04320987654320987,0,0,0.04320987654320987,14.604938271604935,0)" xlink:href="#aa"/><use transform="matrix(0.04320987654320987,0,0,0.04320987654320987,28.43209876543209,0)" xlink:href="#T"/></g><g id="w"><use transform="matrix(0.04320987654320987,0,0,0.04320987654320987,0,0)" xlink:href="#R"/><use transform="matrix(0.04320987654320987,0,0,0.04320987654320987,5.141975308641975,0)" xlink:href="#N"/><use transform="matrix(0.04320987654320987,0,0,0.04320987654320987,13.783950617283947,0)" xlink:href="#aa"/><use transform="matrix(0.04320987654320987,0,0,0.04320987654320987,27.611111111111104,0)" xlink:href="#V"/><use transform="matrix(0.04320987654320987,0,0,0.04320987654320987,37.07407407407407,0)" xlink:href="#T"/><use transform="matrix(0.04320987654320987,0,0,0.04320987654320987,41.395061728395056,0)" xlink:href="#ab"/><use transform="matrix(0.04320987654320987,0,0,0.04320987654320987,50.037037037037024,0)" xlink:href="#R"/><use transform="matrix(0.04320987654320987,0,0,0.04320987654320987,55.17901234567901,0)" xlink:href="#N"/></g><g id="x"><use transform="matrix(0.04320987654320987,0,0,0.04320987654320987,0,0)" xlink:href="#ab"/><use transform="matrix(0.04320987654320987,0,0,0.04320987654320987,8.641975308641973,0)" xlink:href="#aq"/><use transform="matrix(0.04320987654320987,0,0,0.04320987654320987,18.104938271604933,0)" xlink:href="#an"/></g><g id="y"><use transform="matrix(0.04320987654320987,0,0,0.04320987654320987,0,0)" xlink:href="#V"/><use transform="matrix(0.04320987654320987,0,0,0.04320987654320987,9.46296296296296,0)" xlink:href="#S"/><use transform="matrix(0.04320987654320987,0,0,0.04320987654320987,15.512345679012343,0)" xlink:href="#am"/><use transform="matrix(0.04320987654320987,0,0,0.04320987654320987,24.975308641975303,0)" xlink:href="#at"/><use transform="matrix(0.04320987654320987,0,0,0.04320987654320987,33.61728395061728,0)" xlink:href="#N"/><use transform="matrix(0.04320987654320987,0,0,0.04320987654320987,42.25925925925925,0)" xlink:href="#Q"/><use transform="matrix(0.04320987654320987,0,0,0.04320987654320987,50.90123456790123,0)" xlink:href="#Q"/></g><g id="z"><use transform="matrix(0.04320987654320987,0,0,0.04320987654320987,0,0)" xlink:href="#X"/><use transform="matrix(0.04320987654320987,0,0,0.04320987654320987,8.641975308641973,0)" xlink:href="#ab"/><use transform="matrix(0.04320987654320987,0,0,0.04320987654320987,17.283950617283946,0)" xlink:href="#T"/><use transform="matrix(0.04320987654320987,0,0,0.04320987654320987,21.604938271604933,0)" xlink:href="#P"/><use transform="matrix(0.04320987654320987,0,0,0.04320987654320987,31.06790123456789,0)" xlink:href="#N"/><use transform="matrix(0.04320987654320987,0,0,0.04320987654320987,39.709876543209866,0)" xlink:href="#Q"/></g><path fill="#3a414a" d="M67-125c0 54 23 88 75 88 28 0 53-7 68-21v-34h-60v-39h108v91C232-14 192 4 140 4 58 4 20-42 15-125 8-236 126-280 215-234c19 10 29 26 37 47l-47 15c-11-23-29-39-63-39-53 1-75 33-75 86" id="aB"/><g id="A"><use transform="matrix(0.04320987654320987,0,0,0.04320987654320987,0,0)" xlink:href="#aB"/><use transform="matrix(0.04320987654320987,0,0,0.04320987654320987,12.098765432098762,0)" xlink:href="#N"/><use transform="matrix(0.04320987654320987,0,0,0.04320987654320987,20.740740740740733,0)" xlink:href="#R"/></g><g id="B"><use transform="matrix(0.04320987654320987,0,0,0.04320987654320987,0,0)" xlink:href="#R"/><use transform="matrix(0.04320987654320987,0,0,0.04320987654320987,5.141975308641975,0)" xlink:href="#N"/><use transform="matrix(0.04320987654320987,0,0,0.04320987654320987,13.783950617283947,0)" xlink:href="#aa"/><use transform="matrix(0.04320987654320987,0,0,0.04320987654320987,27.611111111111104,0)" xlink:href="#V"/><use transform="matrix(0.04320987654320987,0,0,0.04320987654320987,37.07407407407407,0)" xlink:href="#T"/><use transform="matrix(0.04320987654320987,0,0,0.04320987654320987,41.395061728395056,0)" xlink:href="#ab"/><use transform="matrix(0.04320987654320987,0,0,0.04320987654320987,50.037037037037024,0)" xlink:href="#R"/><use transform="matrix(0.04320987654320987,0,0,0.04320987654320987,55.17901234567901,0)" xlink:href="#N"/></g><g id="C"><use transform="matrix(0.04320987654320987,0,0,0.04320987654320987,0,0)" xlink:href="#av"/><use transform="matrix(0.04320987654320987,0,0,0.04320987654320987,5.141975308641975,0)" xlink:href="#S"/><use transform="matrix(0.04320987654320987,0,0,0.04320987654320987,11.191358024691356,0)" xlink:href="#am"/><use transform="matrix(0.04320987654320987,0,0,0.04320987654320987,20.654320987654316,0)" xlink:href="#aa"/></g><g id="D"><use transform="matrix(0.04320987654320987,0,0,0.04320987654320987,0,0)" xlink:href="#R"/><use transform="matrix(0.04320987654320987,0,0,0.04320987654320987,5.141975308641975,0)" xlink:href="#N"/><use transform="matrix(0.04320987654320987,0,0,0.04320987654320987,13.783950617283947,0)" xlink:href="#aa"/><use transform="matrix(0.04320987654320987,0,0,0.04320987654320987,27.611111111111104,0)" xlink:href="#V"/><use transform="matrix(0.04320987654320987,0,0,0.04320987654320987,37.07407407407407,0)" xlink:href="#T"/><use transform="matrix(0.04320987654320987,0,0,0.04320987654320987,41.395061728395056,0)" xlink:href="#ab"/><use transform="matrix(0.04320987654320987,0,0,0.04320987654320987,50.037037037037024,0)" xlink:href="#R"/><use transform="matrix(0.04320987654320987,0,0,0.04320987654320987,55.17901234567901,0)" xlink:href="#N"/><use transform="matrix(0.04320987654320987,0,0,0.04320987654320987,63.82098765432098,0)" xlink:href="#Q"/></g><g id="E"><use transform="matrix(0.04320987654320987,0,0,0.04320987654320987,0,0)" xlink:href="#Q"/><use transform="matrix(0.04320987654320987,0,0,0.04320987654320987,8.641975308641973,0)" xlink:href="#P"/><use transform="matrix(0.04320987654320987,0,0,0.04320987654320987,18.104938271604933,0)" xlink:href="#ap"/><use transform="matrix(0.04320987654320987,0,0,0.04320987654320987,27.56790123456789,0)" xlink:href="#an"/><use transform="matrix(0.04320987654320987,0,0,0.04320987654320987,37.03086419753085,0)" xlink:href="#Y"/><use transform="matrix(0.04320987654320987,0,0,0.04320987654320987,41.35185185185184,0)" xlink:href="#S"/><use transform="matrix(0.04320987654320987,0,0,0.04320987654320987,47.40123456790123,0)" xlink:href="#N"/><use transform="matrix(0.04320987654320987,0,0,0.04320987654320987,56.043209876543195,0)" xlink:href="#at"/><use transform="matrix(0.04320987654320987,0,0,0.04320987654320987,64.68518518518516,0)" xlink:href="#R"/><use transform="matrix(0.04320987654320987,0,0,0.04320987654320987,69.82716049382714,0)" xlink:href="#am"/><use transform="matrix(0.04320987654320987,0,0,0.04320987654320987,79.2901234567901,0)" xlink:href="#S"/><use transform="matrix(0.04320987654320987,0,0,0.04320987654320987,85.33950617283948,0)" xlink:href="#W"/></g><g id="F"><use transform="matrix(0.04320987654320987,0,0,0.04320987654320987,0,0)" xlink:href="#az"/><use transform="matrix(0.04320987654320987,0,0,0.04320987654320987,12.91975308641975,0)" xlink:href="#am"/><use transform="matrix(0.04320987654320987,0,0,0.04320987654320987,22.382716049382708,0)" xlink:href="#an"/><use transform="matrix(0.04320987654320987,0,0,0.04320987654320987,31.845679012345673,0)" xlink:href="#N"/><use transform="matrix(0.04320987654320987,0,0,0.04320987654320987,40.487654320987644,0)" xlink:href="#T"/></g><g id="G"><use transform="matrix(0.04320987654320987,0,0,0.04320987654320987,0,0)" xlink:href="#an"/><use transform="matrix(0.04320987654320987,0,0,0.04320987654320987,9.46296296296296,0)" xlink:href="#ab"/><use transform="matrix(0.04320987654320987,0,0,0.04320987654320987,18.104938271604933,0)" xlink:href="#R"/><use transform="matrix(0.04320987654320987,0,0,0.04320987654320987,23.246913580246908,0)" xlink:href="#ab"/></g><g id="H"><use transform="matrix(0.04320987654320987,0,0,0.04320987654320987,0,0)" xlink:href="#Y"/><use transform="matrix(0.04320987654320987,0,0,0.04320987654320987,4.320987654320986,0)" xlink:href="#aq"/></g><g id="I"><use transform="matrix(0.04320987654320987,0,0,0.04320987654320987,0,0)" xlink:href="#an"/><use transform="matrix(0.04320987654320987,0,0,0.04320987654320987,9.46296296296296,0)" xlink:href="#ab"/><use transform="matrix(0.04320987654320987,0,0,0.04320987654320987,18.104938271604933,0)" xlink:href="#R"/><use transform="matrix(0.04320987654320987,0,0,0.04320987654320987,23.246913580246908,0)" xlink:href="#ab"/><use transform="matrix(0.04320987654320987,0,0,0.04320987654320987,31.88888888888888,0)" xlink:href="#ap"/><use transform="matrix(0.04320987654320987,0,0,0.04320987654320987,41.35185185185184,0)" xlink:href="#ab"/><use transform="matrix(0.04320987654320987,0,0,0.04320987654320987,49.993827160493815,0)" xlink:href="#Q"/><use transform="matrix(0.04320987654320987,0,0,0.04320987654320987,58.63580246913579,0)" xlink:href="#N"/></g></defs></g></svg>